#!OML:ASF H:\Pregnant\Project 1\Capture day 1\Session 1\femalepreg.ASF
:FULLY-SPECIFIED
:DEGREES
1106
root 5.99885 16.6167 -23.8372 -88.0463 -99.6672 109.569
lowerback -9.79503 -1.40009 -13.3001
upperback -7.57978 -1.39009 -2.92917
thorax -2.41571 -0.424064 4.24212
lowerneck -16.6588 7.90585 8.70729
upperneck 18.2188 8.04538 2.09277
head 8.73934 4.56672 0.311061
rclavicle -2.39536e-014 1.59028e-014
rhumerus -48.0817 0.278322 -79.1886
rradius 55.6547
rwrist -12.1907
rhand -11.0544 -16.8025
rfingers 7.12502
rthumb 14.9681 -46.2415
lclavicle -2.39536e-014 1.59028e-014
lhumerus -32.4592 -25.8515 85.0722
lradius 26.5071
lwrist 41.7389
lhand -27.6544 -3.75482
lfingers 7.12502
lthumb -1.05215 26.2223
rfemur -38.4028 12.4551 14.649
rtibia 42.2321
rfoot -13.8676 -14.9162
rtoes 5.39945
lfemur -30.7565 -7.39382 -11.9539
ltibia 25.1584
lfoot -11.644 6.84121
ltoes -12.2083
1107
root 5.99195 16.6164 -23.849 -91.028 -99.6076 112.661
lowerback -9.80515 -1.51582 -13.1858
upperback -7.59147 -1.55279 -2.97717
thorax -2.39532 -0.512541 4.11496
lowerneck -16.7619 7.88424 8.73216
upperneck 18.2958 8.00183 2.06599
head 8.7851 4.54665 0.298627
rclavicle 1.38155e-014 -5.40694e-014
rhumerus -48.0179 0.495716 -79.4913
rradius 55.9646
rwrist -12.165
rhand -10.7838 -16.7197
rfingers 7.12502
rthumb 15.2288 -46.1392
lclavicle 1.38155e-014 -5.40694e-014
lhumerus -32.3618 -25.7082 84.8821
lradius 26.5834
lwrist 41.9245
lhand -27.5822 -3.67819
lfingers 7.12502
lthumb -0.98239 26.2993
rfemur -38.3195 12.2202 14.191
rtibia 42.0942
rfoot -13.8191 -14.7389
rtoes 5.78418
lfemur -30.8314 -7.91647 -11.9579
ltibia 24.8724
lfoot -11.4073 6.83276
ltoes -12.2817
1108
root 5.98476 16.6158 -23.8605 -94.6193 -99.5759 116.403
lowerback -9.83757 -1.65584 -13.0316
upperback -7.60366 -1.74913 -3.07184
thorax -2.36 -0.622212 3.91306
lowerneck -16.8798 7.86489 8.82817
upperneck 18.3798 7.94326 2.02461
head 8.83976 4.52288 0.269278
rclavicle 9.44227e-015 2.8625e-014
rhumerus -47.9732 0.679691 -79.8461
rradius 56.268
rwrist -12.1406
rhand -10.4876 -16.637
rfingers 7.12502
rthumb 15.5141 -46.0346
lclavicle 9.44227e-015 2.8625e-014
lhumerus -32.2323 -25.5392 84.6198
lradius 26.6334
lwrist 42.0199
lhand -27.5123 -3.61215
lfingers 7.12502
lthumb -0.914837 26.3656
rfemur -38.2355 11.8813 13.7427
rtibia 41.9461
rfoot -13.6848 -14.5679
rtoes 5.81817
lfemur -30.9582 -8.50221 -11.9741
ltibia 24.5543
lfoot -11.137 6.77582
ltoes -12.3167
1109
root 5.97653 16.6155 -23.8747 -98.0184 -99.5697 119.959
lowerback -9.90708 -1.80775 -12.9321
upperback -7.61225 -1.95003 -3.13442
thorax -2.30067 -0.732491 3.77327
lowerneck -16.9784 7.85912 8.89653
upperneck 18.4453 7.91283 1.98631
head 8.88391 4.51052 0.24759
rclavicle 7.95139e-015 -6.04305e-014
rhumerus -47.9167 0.914245 -80.1976
rradius 56.5569
rwrist -12.1246
rhand -10.1941 -16.5739
rfingers 7.12502
rthumb 15.7968 -45.9493
lclavicle 7.95139e-015 -6.04305e-014
lhumerus -32.0796 -25.275 84.3406
lradius 26.6625
lwrist 42.0558
lhand -27.4414 -3.55147
lfingers 7.12502
lthumb -0.846383 26.4266
rfemur -38.1487 11.6019 13.2977
rtibia 41.7725
rfoot -13.4814 -14.3903
rtoes 5.91469
lfemur -31.0735 -9.0263 -11.9929
ltibia 24.2333
lfoot -10.887 6.68938
ltoes -12.3243
1110
root 5.96669 16.6153 -23.893 -100.8 -99.5721 122.878
lowerback -10.0185 -1.93311 -12.8697
upperback -7.61376 -2.1057 -3.1959
thorax -2.21905 -0.820263 3.65707
lowerneck -17.0764 7.85948 9.02695
upperneck 18.509 7.8794 1.92253
head 8.93145 4.49824 0.20746
rclavicle 2.5842e-015 -4.77083e-014
rhumerus -47.8701 1.1399 -80.5737
rradius 56.8344
rwrist -12.1128
rhand -9.87649 -16.4909
rfingers 7.12502
rthumb 16.1026 -45.8419
lclavicle 2.5842e-015 -4.77083e-014
lhumerus -31.9397 -25.0699 84.0612
lradius 26.7024
lwrist 42.1117
lhand -27.4764 -3.53064
lfingers 7.12502
lthumb -0.880208 26.4473
rfemur -38.0497 11.4124 12.9003
rtibia 41.56
rfoot -13.1245 -14.2254
rtoes 5.74487
lfemur -31.147 -9.39486 -12.0198
ltibia 23.9445
lfoot -10.6897 6.56852
ltoes -12.4301
1111
root 5.95567 16.615 -23.9158 -102.605 -99.5492 124.776
lowerback -10.1498 -2.02572 -12.8918
upperback -7.61424 -2.20622 -3.19654
thorax -2.13207 -0.875335 3.65517
lowerneck -17.1444 7.87255 9.10644
upperneck 18.5618 7.8812 1.85898
head 8.96842 4.49888 0.178345
rclavicle -1.72943e-014 6.04305e-014
rhumerus -47.8156 1.47769 -80.9076
rradius 57.0959
rwrist -12.1406
rhand -9.54628 -16.4161
rfingers 7.12502
rthumb 16.4205 -45.7411
lclavicle -1.72943e-014 6.04305e-014
lhumerus -31.7842 -24.7451 83.7894
lradius 26.7164
lwrist 42.0889
lhand -27.5589 -3.55315
lfingers 7.12502
lthumb -0.95986 26.4244
rfemur -37.9393 11.3984 12.5271
rtibia 41.3033
rfoot -12.6786 -14.0273
rtoes 5.83389
lfemur -31.1407 -9.57148 -12.0528
ltibia 23.697
lfoot -10.5643 6.44005
ltoes -12.5935
1112
root 5.94322 16.6145 -23.9432 -103.297 -99.4815 125.498
lowerback -10.2924 -2.07065 -13.0025
upperback -7.61335 -2.23206 -3.12747
thorax -2.04613 -0.887119 3.78159
lowerneck -17.1906 7.88977 9.11875
upperneck 18.6159 7.9093 1.79831
head 8.99922 4.50758 0.163031
rclavicle 2.44505e-014 6.99722e-014
rhumerus -47.7661 1.8624 -81.1844
rradius 57.3368
rwrist -12.1508
rhand -9.21034 -16.3514
rfingers 7.12502
rthumb 16.744 -45.6494
lclavicle 2.44505e-014 6.99722e-014
lhumerus -31.6656 -24.4474 83.6058
lradius 26.7487
lwrist 42.1361
lhand -27.6764 -3.59896
lfingers 7.12502
lthumb -1.07339 26.3781
rfemur -37.8115 11.5901 12.1821
rtibia 41.0031
rfoot -12.1644 -13.7947
rtoes 6.2893
lfemur -31.029 -9.53217 -12.0919
ltibia 23.4912
lfoot -10.5146 6.30951
ltoes -12.8054
1113
root 5.93037 16.6136 -23.9709 -104.081 -99.4105 126.312
lowerback -10.4371 -2.12441 -13.1386
upperback -7.61871 -2.26677 -3.02678
thorax -1.96304 -0.901079 3.9544
lowerneck -17.2095 7.90862 9.06882
upperneck 18.6692 7.9582 1.74658
head 9.02207 4.52266 0.161837
rclavicle 3.11098e-014 3.49861e-014
rhumerus -47.729 2.28512 -81.4147
rradius 57.5579
rwrist -12.1517
rhand -8.83623 -16.2939
rfingers 7.12502
rthumb 17.1041 -45.561
lclavicle 3.11098e-014 3.49861e-014
lhumerus -31.5425 -24.0863 83.4501
lradius 26.7589
lwrist 42.1276
lhand -27.7919 -3.67056
lfingers 7.12502
lthumb -1.18496 26.3059
rfemur -37.6669 11.7957 11.826
rtibia 40.6685
rfoot -11.638 -13.5626
rtoes 7.1679
lfemur -30.934 -9.46973 -12.1513
ltibia 23.3147
lfoot -10.486 6.15229
ltoes -13.0602
1114
root 5.91722 16.6123 -23.9993 -104.948 -99.3382 127.214
lowerback -10.5376 -2.1851 -13.2968
upperback -7.67334 -2.32291 -2.89554
thorax -1.95292 -0.918927 4.17156
lowerneck -17.1548 7.92698 8.97171
upperneck 18.7392 8.02511 1.7037
head 9.03546 4.54393 0.170641
rclavicle 1.77912e-014 5.40694e-014
rhumerus -47.772 2.74581 -81.6128
rradius 57.761
rwrist -12.1275
rhand -8.44844 -16.2517
rfingers 7.12502
rthumb 17.4773 -45.4861
lclavicle 1.77912e-014 5.40694e-014
lhumerus -31.4854 -23.6368 83.3367
lradius 26.7436
lwrist 42.0399
lhand -27.8865 -3.76337
lfingers 7.12502
lthumb -1.27632 26.2126
rfemur -37.512 12.0104 11.4646
rtibia 40.3054
rfoot -11.1034 -13.3465
rtoes 8.31919
lfemur -30.8555 -9.39643 -12.2223
ltibia 23.1577
lfoot -10.4678 5.97945
ltoes -13.3103
1115
root 5.90348 16.6104 -24.0275 -105.852 -99.2625 128.149
lowerback -10.5217 -2.27068 -13.5178
upperback -7.83734 -2.44173 -2.68801
thorax -2.11164 -0.950946 4.50335
lowerneck -16.9488 7.96178 8.83087
upperneck 18.8599 8.14362 1.65091
head 9.03936 4.58559 0.184841
rclavicle -1.59028e-015 -9.54166e-015
rhumerus -47.9812 3.34679 -81.7699
rradius 57.9559
rwrist -12.0893
rhand -8.03016 -16.228
rfingers 7.12502
rthumb 17.8798 -45.4261
lclavicle -1.59028e-015 -9.54166e-015
lhumerus -31.6356 -23.0645 83.3457
lradius 26.726
lwrist 41.9173
lhand -27.8494 -3.77997
lfingers 7.12502
lthumb -1.24048 26.1962
rfemur -37.3433 12.2316 11.1024
rtibia 39.9193
rfoot -10.5851 -13.143
rtoes 9.69144
lfemur -30.7751 -9.31992 -12.3035
ltibia 23.0075
lfoot -10.4525 5.81127
ltoes -13.5959
